<svg xmlns="http://www.w3.org/2000/svg" version="1.1" xmlns:xlink="http://www.w3.org/1999/xlink" width="512" height="512" x="0" y="0" viewBox="0 0 510 510" style="enable-background:new 0 0 512 512" xml:space="preserve" class="">
  <g>
    <linearGradient id="a">
      <stop offset="0" stop-color="#f89580"></stop>
      <stop offset="1" stop-color="#c4573a"></stop>
    </linearGradient>
    <linearGradient xlink:href="#a" id="g" x1="255" x2="255" y1="333.524" y2="420.524" gradientUnits="userSpaceOnUse"></linearGradient>
    <linearGradient xlink:href="#a" id="h" x1="247.995" x2="322.991" y1="380.513" y2="433.01" gradientUnits="userSpaceOnUse"></linearGradient>
    <linearGradient id="b">
      <stop offset="0" stop-color="#c4573a" stop-opacity="0"></stop>
      <stop offset="1" stop-color="#883f2e"></stop>
    </linearGradient>
    <linearGradient xlink:href="#b" id="i" x1="266.869" x2="266.869" y1="441" y2="313.423" gradientUnits="userSpaceOnUse"></linearGradient>
    <linearGradient xlink:href="#b" id="j" x1="219.06" x2="143.726" y1="408.924" y2="475.591" gradientUnits="userSpaceOnUse"></linearGradient>
    <linearGradient xlink:href="#b" id="k" x1="227.981" x2="351.315" y1="381.849" y2="331.182" gradientUnits="userSpaceOnUse"></linearGradient>
    <linearGradient xlink:href="#b" id="l" x1="255" x2="255" y1="478" y2="505.342" gradientUnits="userSpaceOnUse"></linearGradient>
    <linearGradient id="c">
      <stop offset="0" stop-color="#f8a6af"></stop>
      <stop offset="1" stop-color="#eb5569"></stop>
    </linearGradient>
    <linearGradient xlink:href="#c" id="m" x1="127.834" x2="96.924" y1="172.024" y2="253.308" gradientUnits="userSpaceOnUse"></linearGradient>
    <linearGradient xlink:href="#c" id="n" x1="384.536" x2="414.302" y1="138.046" y2="221.62" gradientUnits="userSpaceOnUse"></linearGradient>
    <linearGradient xlink:href="#c" id="o" x1="229.546" x2="345.443" y1="92.862" y2="208.759" gradientUnits="userSpaceOnUse"></linearGradient>
    <linearGradient xlink:href="#c" id="p" x1="213.127" x2="319.645" y1="187.113" y2="382.121" gradientUnits="userSpaceOnUse"></linearGradient>
    <linearGradient id="d">
      <stop offset="0" stop-color="#fd4755" stop-opacity="0"></stop>
      <stop offset="1" stop-color="#ca2e43"></stop>
    </linearGradient>
    <linearGradient xlink:href="#d" id="q" x1="255" x2="255" y1="291.086" y2="412.8" gradientUnits="userSpaceOnUse"></linearGradient>
    <linearGradient xlink:href="#d" id="r" x1="282.152" x2="382.323" y1="179.605" y2="135.135" gradientUnits="userSpaceOnUse"></linearGradient>
    <linearGradient xlink:href="#d" id="s" x1="155.468" x2="61.51" y1="209.157" y2="237.017" gradientUnits="userSpaceOnUse"></linearGradient>
    <linearGradient xlink:href="#d" id="t" x1="251.619" x2="297.506" y1="282.509" y2="425.267" gradientUnits="userSpaceOnUse"></linearGradient>
    <linearGradient xlink:href="#d" id="u" x1="347.72" x2="478.278" y1="207.054" y2="203.23" gradientUnits="userSpaceOnUse"></linearGradient>
    <linearGradient xlink:href="#c" id="v" x1="941.04" x2="975.831" y1="444.257" y2="479.048" gradientTransform="rotate(46.21 977.745 -786.013)" gradientUnits="userSpaceOnUse"></linearGradient>
    <linearGradient id="e">
      <stop offset="0" stop-color="#fd4755" stop-opacity="0"></stop>
      <stop offset="1" stop-color="#fd4755"></stop>
    </linearGradient>
    <linearGradient xlink:href="#e" id="w" x1="972.831" x2="963.136" y1="456.564" y2="477.227" gradientTransform="rotate(46.21 977.745 -786.013)" gradientUnits="userSpaceOnUse"></linearGradient>
    <linearGradient xlink:href="#c" id="x" x1="-98.666" x2="-63.875" y1="167.994" y2="202.784" gradientTransform="rotate(-44.36 427.212 -328.565)" gradientUnits="userSpaceOnUse"></linearGradient>
    <linearGradient xlink:href="#e" id="y" x1="-66.874" x2="-76.57" y1="180.301" y2="200.964" gradientTransform="rotate(-44.36 427.212 -328.565)" gradientUnits="userSpaceOnUse"></linearGradient>
    <linearGradient xlink:href="#c" id="z" x1="2412.395" x2="2447.186" y1="1170.852" y2="1205.642" gradientTransform="rotate(129.12 1454.806 274.289)" gradientUnits="userSpaceOnUse"></linearGradient>
    <linearGradient xlink:href="#e" id="A" x1="2444.187" x2="2434.491" y1="1183.158" y2="1203.822" gradientTransform="rotate(129.12 1454.806 274.289)" gradientUnits="userSpaceOnUse"></linearGradient>
    <linearGradient id="f">
      <stop offset="0" stop-color="#fffaf8"></stop>
      <stop offset="1" stop-color="#ffdfcf"></stop>
    </linearGradient>
    <linearGradient xlink:href="#f" id="B" x1="358.639" x2="393.994" y1="231.361" y2="266.716" gradientUnits="userSpaceOnUse"></linearGradient>
    <linearGradient xlink:href="#f" id="C" x1="88.292" x2="123.648" y1="217.736" y2="253.092" gradientUnits="userSpaceOnUse"></linearGradient>
    <linearGradient xlink:href="#f" id="D" x1="198.477" x2="233.832" y1="40.131" y2="75.486" gradientUnits="userSpaceOnUse"></linearGradient>
    <linearGradient xlink:href="#f" id="E" x1="239.173" x2="274.528" y1="173.964" y2="209.319" gradientUnits="userSpaceOnUse"></linearGradient>
    <path fill="url(#g)" d="M255 412.427c-69.927 0-126.817-56.89-126.817-126.817S185.073 158.792 255 158.792s126.817 56.89 126.817 126.817S324.927 412.427 255 412.427zm0-238.635c-61.656 0-111.817 50.161-111.817 111.817S193.344 397.427 255 397.427s111.817-50.161 111.817-111.817S316.656 173.792 255 173.792z" opacity="1" data-original="url(#g)"></path>
    <path fill="url(#h)" d="M321.498 510H188.502c-8.763 0-15.021-8.483-12.423-16.852 17.699-57.021 32.186-131.19 42.453-216.425l5.234-43.469c.588 1.617 1.558 2.556 2.613 2.253.078-.029.163-.058.248-.072 5.135-1.56 9.873-5.719 13.889-11.842 2.989-4.564 7.182-3.423 9.448 2.628.85 2.282 1.714 4.405 2.578 6.34 1.098 2.441 2.961 2.455 4.08.043.984-2.137 1.99-4.564 2.989-7.221 2.252-5.979 6.474-7.177 9.392-2.542 4.115 6.528 9.023 10.961 14.371 12.593.085.014.17.043.248.072 1.055.303 2.026-.635 2.613-2.238l5.234 43.455c10.267 85.235 24.754 159.404 42.453 216.425 2.597 8.369-3.661 16.852-12.424 16.852z" opacity="1" data-original="url(#h)"></path>
    <path fill="url(#i)" d="m209 345.186 115.739 115.739c-13.563-51.698-24.84-114.215-33.27-184.202l-5.234-43.455c-.588 1.603-1.558 2.542-2.613 2.238a1.362 1.362 0 0 0-.248-.072c-5.347-1.632-10.256-6.066-14.371-12.593-2.918-4.636-7.139-3.437-9.392 2.542a109.513 109.513 0 0 1-2.989 7.221c-1.119 2.412-2.982 2.397-4.08-.043a108.572 108.572 0 0 1-2.578-6.34c-2.266-6.051-6.459-7.192-9.448-2.628-4.016 6.123-8.754 10.282-13.889 11.842-.085.014-.17.043-.248.072-1.055.303-2.026-.635-2.613-2.253l-5.234 43.469c-2.858 23.722-6.043 46.584-9.532 68.461z" opacity="1" data-original="url(#i)"></path>
    <path fill="url(#j)" d="M285.365 510h-60.731c-4.001 0-6.859-8.483-5.673-16.852 8.082-57.021 14.697-131.19 19.385-216.425l2.39-43.469c.268 1.617.712 2.556 1.193 2.253a.422.422 0 0 1 .113-.072c2.345-1.56 4.508-5.719 6.342-11.842 1.365-4.564 3.279-3.423 4.314 2.628.388 2.282.783 4.405 1.177 6.34.501 2.441 1.352 2.455 1.863.043.45-2.137.909-4.564 1.365-7.221 1.028-5.979 2.956-7.177 4.289-2.542 1.879 6.528 4.12 10.961 6.562 12.593a.407.407 0 0 1 .113.072c.482.303.925-.635 1.193-2.238l2.39 43.455c4.688 85.235 11.303 159.404 19.385 216.425 1.189 8.369-1.668 16.852-5.67 16.852z" opacity="1" data-original="url(#j)"></path>
    <path fill="url(#k)" d="M285.365 510h-60.731c-4.001 0-6.859-8.483-5.673-16.852 8.082-57.021 14.697-131.19 19.385-216.425l2.39-43.469c.268 1.617.712 2.556 1.193 2.253a.422.422 0 0 1 .113-.072c2.345-1.56 4.508-5.719 6.342-11.842 1.365-4.564 3.279-3.423 4.314 2.628.388 2.282.783 4.405 1.177 6.34.501 2.441 1.352 2.455 1.863.043.45-2.137.909-4.564 1.365-7.221 1.028-5.979 2.956-7.177 4.289-2.542 1.879 6.528 4.12 10.961 6.562 12.593a.407.407 0 0 1 .113.072c.482.303.925-.635 1.193-2.238l2.39 43.455c4.688 85.235 11.303 159.404 19.385 216.425 1.189 8.369-1.668 16.852-5.67 16.852z" opacity="1" data-original="url(#k)"></path>
    <path fill="url(#l)" d="M176.078 493.148C173.48 501.517 179.739 510 188.501 510h132.997c8.763 0 15.021-8.483 12.423-16.852-4.685-15.095-9.143-31.403-13.36-48.789H189.438c-4.216 17.386-8.674 33.695-13.36 48.789z" opacity="1" data-original="url(#l)"></path>
    <circle cx="120.365" cy="191.665" r="79.419" fill="url(#m)" opacity="1" data-original="url(#m)"></circle>
    <circle cx="394.908" cy="167.166" r="56.455" fill="url(#n)" opacity="1" data-original="url(#n)"></circle>
    <circle cx="256.036" cy="119.352" r="119.352" fill="url(#o)" opacity="1" data-original="url(#o)"></circle>
    <path fill="url(#p)" d="M461.448 213.557c-16.428-16.428-38.902-23.121-60.259-20.087-6.182-23.061-27.218-40.045-52.23-40.045a53.82 53.82 0 0 0-29.386 8.69c-11.214-24.464-35.9-41.467-64.572-41.467s-53.359 17.002-64.572 41.467a53.806 53.806 0 0 0-29.386-8.69c-25.012 0-46.048 16.984-52.23 40.045-21.357-3.035-43.831 3.659-60.259 20.087-27.733 27.733-27.733 72.697 0 100.43 18.479 18.479 44.605 24.628 68.19 18.48 9.781 13.949 25.969 23.078 44.3 23.078 16.001 0 30.374-6.954 40.275-18 13.021 15.033 32.234 24.555 53.683 24.555s40.662-9.522 53.683-24.555c9.902 11.045 24.274 18 40.275 18 18.33 0 34.519-9.128 44.3-23.078 23.585 6.147 49.711-.001 68.19-18.48 27.731-27.733 27.731-72.697-.002-100.43z" opacity="1" data-original="url(#p)"></path>
    <path fill="url(#q)" d="M48.552 313.987c18.479 18.479 44.605 24.628 68.19 18.48 9.781 13.949 25.969 23.078 44.3 23.078 16.001 0 30.374-6.954 40.275-18C214.338 352.578 233.551 362.1 255 362.1s40.662-9.522 53.683-24.555c9.902 11.045 24.274 18 40.275 18 18.33 0 34.519-9.128 44.3-23.078 23.585 6.147 49.711-.001 68.19-18.48 15.197-15.197 22.046-35.567 20.588-55.441H27.964c-1.458 19.875 5.391 40.244 20.588 55.441z" opacity="1" data-original="url(#q)"></path>
    <path fill="url(#r)" d="M294.878 207.507c0-19.03 9.837-35.751 24.695-45.39-11.214-24.464-35.9-41.467-64.572-41.467-39.22 0-71.015 31.794-71.015 71.015S215.78 262.68 255 262.68c20.179 0 38.378-8.43 51.306-21.944-7.154-9.171-11.428-20.698-11.428-33.229z" opacity="1" data-original="url(#r)"></path>
    <path fill="url(#s)" d="M215.122 207.507c0 26.909-19.655 49.23-45.395 53.381-.699-17.207-7.604-34.196-20.747-47.329-11.308-11.308-25.467-18.005-40.173-20.092 6.173-23.063 27.226-40.042 52.234-40.042 29.871.001 54.081 24.211 54.081 54.082z" opacity="1" data-original="url(#s)"></path>
    <path fill="url(#t)" d="M294.878 301.465c0-18.154 8.954-34.206 22.676-44.014-11.991-22.253-35.504-37.38-62.554-37.38-39.22 0-71.015 31.794-71.015 71.015S215.78 362.101 255 362.101c21.449 0 40.662-9.522 53.683-24.555-8.581-9.572-13.805-22.215-13.805-36.081z" opacity="1" data-original="url(#t)"></path>
    <path fill="url(#u)" d="M401.192 193.467c-14.706 2.087-28.865 8.784-40.173 20.092-13.143 13.132-20.048 30.121-20.747 47.329-25.74-4.152-45.395-26.472-45.395-53.381 0-29.87 24.211-54.081 54.081-54.081 25.008 0 46.062 16.978 52.234 40.041z" opacity="1" data-original="url(#u)"></path>
    <path fill="url(#v)" d="M94.951 53.269c-5.25-.585-11.999-1.407-16.338-.833a1.77 1.77 0 0 1-1.973-2.071c.758-4.245.221-10.846-.145-16.309-.145-2.164-2.067-3.778-4.22-3.521-.624.074-1.283.167-1.97.275a42.507 42.507 0 0 0-33.337 27.53c-4.229 11.692-8.616 26.122-9.209 36.979-.12 2.193 1.65 4.04 3.846 3.996 10.521-.21 25.27-4.026 37.291-7.751 15.36-4.759 26.819-17.761 29.342-33.642l.048-.309a3.798 3.798 0 0 0-3.335-4.344z" opacity="1" data-original="url(#v)"></path>
    <path fill="url(#w)" d="M98.286 57.613a3.798 3.798 0 0 0-3.335-4.344c-5.249-.585-11.999-1.407-16.338-.833a1.759 1.759 0 0 1-1.648-.694L28.678 98.001a3.753 3.753 0 0 0 2.926 1.314c10.521-.21 25.27-4.026 37.291-7.751 15.36-4.759 26.819-17.761 29.342-33.642l.049-.309z" opacity="1" data-original="url(#w)"></path>
    <path fill="url(#x)" d="M412.382 362.845c-.534 5.255-1.289 12.012-.672 16.345a1.769 1.769 0 0 1-2.051 1.993c-4.253-.716-10.848-.114-16.307.306-2.162.166-3.757 2.104-3.479 4.255.081.623.18 1.281.295 1.967a42.506 42.506 0 0 0 27.857 33.065c11.733 4.113 26.205 8.358 37.068 8.845 2.194.098 4.024-1.69 3.958-3.885-.314-10.518-4.274-25.229-8.117-37.213-4.91-15.312-18.024-26.643-33.929-29.01l-.31-.045a3.798 3.798 0 0 0-4.313 3.377z" opacity="1" data-original="url(#x)"></path>
    <path fill="url(#y)" d="M416.693 359.467a3.798 3.798 0 0 0-4.311 3.378c-.534 5.255-1.289 12.012-.672 16.345a1.758 1.758 0 0 1-.678 1.655l46.732 47.829a3.754 3.754 0 0 0 1.285-2.939c-.314-10.518-4.274-25.229-8.117-37.213-4.91-15.312-18.024-26.643-33.929-29.01l-.31-.045z" opacity="1" data-original="url(#y)"></path>
    <path fill="url(#z)" d="M145.048 484.689c-.07-5.282-.092-12.081-1.2-16.315a1.769 1.769 0 0 1 1.81-2.214c4.307.226 10.789-1.126 16.165-2.167 2.129-.412 3.492-2.52 2.97-4.625a53.742 53.742 0 0 0-.517-1.92 42.508 42.508 0 0 0-31.453-29.665c-12.126-2.745-26.989-5.309-37.836-4.551-2.191.153-3.804 2.138-3.488 4.312 1.514 10.413 7.129 24.575 12.317 36.042 6.628 14.651 20.951 24.409 37.022 24.942l.313.009a3.798 3.798 0 0 0 3.897-3.848z" opacity="1" data-original="url(#z)"></path>
    <path fill="url(#A)" d="M141.151 488.537a3.798 3.798 0 0 0 3.897-3.848c-.07-5.282-.092-12.081-1.2-16.315a1.76 1.76 0 0 1 .484-1.722L92.44 424.477a3.754 3.754 0 0 0-.941 3.067c1.514 10.413 7.129 24.575 12.317 36.042 6.628 14.651 20.951 24.409 37.022 24.942l.313.009z" opacity="1" data-original="url(#A)"></path>
    <path fill="url(#B)" d="M424.363 250.449c-2.252-1.414-5.132-3.264-7.225-3.954a.89.89 0 0 1-.441-1.371c1.273-1.759 2.474-4.869 3.504-7.426a1.908 1.908 0 0 0-1.143-2.52 25.853 25.853 0 0 0-.953-.306 21.4 21.4 0 0 0-21.14 5.184c-.777.759-1.574 1.556-2.375 2.378a157.025 157.025 0 0 0 1.535-2.99c3.619-7.241 2.884-15.936-2.011-22.384l-.096-.125a1.913 1.913 0 0 0-2.741-.301c-2.041 1.704-4.69 3.872-5.993 5.649a.89.89 0 0 1-1.44-.004c-1.279-1.754-3.866-3.857-5.98-5.627a1.909 1.909 0 0 0-2.75.308c-.19.253-.386.525-.586.812a21.4 21.4 0 0 0-1.603 21.707 138.2 138.2 0 0 0 1.527 2.994c-.799-.822-1.594-1.62-2.369-2.383-5.769-5.68-14.265-7.667-21.91-5.004l-.149.052a1.913 1.913 0 0 0-1.133 2.514c.99 2.468 2.233 5.657 3.521 7.445a.89.89 0 0 1-.449 1.368c-2.064.675-4.863 2.485-7.2 3.948a1.908 1.908 0 0 0-.557 2.71c.182.259.38.529.591.808a21.4 21.4 0 0 0 20.15 8.232c1.075-.158 2.188-.333 3.319-.527a151.387 151.387 0 0 0-2.999 1.517c-7.184 3.731-11.7 11.197-11.53 19.291l.004.157a1.912 1.912 0 0 0 2.041 1.854c2.653-.179 6.07-.376 8.169-1.048a.89.89 0 0 1 1.162.85c.004 2.171.86 5.393 1.53 8.067a1.909 1.909 0 0 0 2.406 1.367c.303-.093.621-.197.951-.312a21.401 21.401 0 0 0 14.056-16.62c.182-1.071.359-2.184.524-3.32.163 1.134.337 2.248.516 3.321 1.328 7.986 7.034 14.587 14.784 16.927l.151.045a1.912 1.912 0 0 0 2.394-1.368c.649-2.579 1.519-5.889 1.528-8.093a.89.89 0 0 1 1.167-.843c2.066.667 5.395.848 8.145 1.038a1.91 1.91 0 0 0 2.044-1.866c.005-.316.004-.651-.003-1.001a21.4 21.4 0 0 0-11.463-18.503 135.815 135.815 0 0 0-2.995-1.524c1.129.195 2.242.374 3.317.536 8.005 1.204 16.047-2.182 20.667-8.83l.089-.13a1.908 1.908 0 0 0-.558-2.699z" opacity="1" data-original="url(#B)"></path>
    <path fill="url(#C)" d="M154.016 236.824c-2.252-1.414-5.132-3.264-7.225-3.954a.89.89 0 0 1-.441-1.371c1.273-1.759 2.474-4.869 3.504-7.426a1.908 1.908 0 0 0-1.143-2.52 25.853 25.853 0 0 0-.953-.306 21.4 21.4 0 0 0-21.14 5.184c-.777.759-1.574 1.556-2.375 2.378a157.025 157.025 0 0 0 1.535-2.99c3.619-7.241 2.884-15.936-2.011-22.384l-.096-.125a1.913 1.913 0 0 0-2.741-.301c-2.041 1.704-4.69 3.872-5.993 5.649a.89.89 0 0 1-1.44-.004c-1.279-1.754-3.866-3.857-5.98-5.627a1.909 1.909 0 0 0-2.75.308c-.19.253-.386.525-.586.812a21.397 21.397 0 0 0-1.602 21.707 138.2 138.2 0 0 0 1.527 2.994c-.799-.822-1.594-1.62-2.369-2.383-5.769-5.68-14.265-7.667-21.91-5.004l-.149.052a1.913 1.913 0 0 0-1.133 2.514c.99 2.468 2.233 5.657 3.521 7.445a.89.89 0 0 1-.449 1.368c-2.064.675-4.863 2.485-7.2 3.948a1.908 1.908 0 0 0-.557 2.71c.182.259.38.529.591.808a21.4 21.4 0 0 0 20.15 8.232c1.075-.158 2.188-.333 3.319-.527a151.387 151.387 0 0 0-2.999 1.517c-7.184 3.731-11.7 11.197-11.53 19.291l.004.157a1.912 1.912 0 0 0 2.041 1.854c2.653-.179 6.071-.376 8.169-1.048a.89.89 0 0 1 1.162.85c.004 2.171.86 5.393 1.53 8.067a1.909 1.909 0 0 0 2.406 1.367c.303-.093.621-.197.951-.312a21.401 21.401 0 0 0 14.056-16.62c.182-1.071.359-2.184.524-3.32.163 1.134.337 2.248.516 3.321 1.328 7.986 7.034 14.587 14.784 16.927l.151.045a1.912 1.912 0 0 0 2.394-1.368c.649-2.579 1.519-5.889 1.528-8.093a.89.89 0 0 1 1.167-.843c2.066.667 5.395.848 8.145 1.038a1.91 1.91 0 0 0 2.044-1.866c.005-.316.004-.651-.003-1.001a21.4 21.4 0 0 0-11.463-18.504 135.815 135.815 0 0 0-2.995-1.524c1.129.195 2.242.374 3.317.536 8.005 1.204 16.047-2.182 20.667-8.83l.089-.13a1.908 1.908 0 0 0-.559-2.698z" opacity="1" data-original="url(#C)"></path>
    <path fill="url(#D)" d="M264.201 59.219c-2.252-1.414-5.132-3.264-7.225-3.954a.89.89 0 0 1-.441-1.371c1.273-1.759 2.474-4.869 3.504-7.426a1.908 1.908 0 0 0-1.143-2.52 25.853 25.853 0 0 0-.953-.306 21.4 21.4 0 0 0-21.14 5.184c-.777.759-1.574 1.556-2.375 2.378a157.025 157.025 0 0 0 1.535-2.99c3.619-7.241 2.884-15.936-2.011-22.384l-.096-.125a1.913 1.913 0 0 0-2.741-.301c-2.041 1.704-4.69 3.872-5.993 5.649a.89.89 0 0 1-1.44-.004c-1.279-1.754-3.866-3.858-5.98-5.627a1.909 1.909 0 0 0-2.75.308c-.19.253-.386.525-.586.812a21.4 21.4 0 0 0-1.603 21.707 138.2 138.2 0 0 0 1.527 2.994c-.799-.822-1.594-1.62-2.369-2.383-5.769-5.68-14.265-7.667-21.91-5.004l-.149.052a1.913 1.913 0 0 0-1.133 2.514c.99 2.468 2.233 5.657 3.521 7.445a.89.89 0 0 1-.449 1.368c-2.064.675-4.863 2.485-7.2 3.948a1.908 1.908 0 0 0-.557 2.71c.182.259.38.529.591.808a21.4 21.4 0 0 0 20.15 8.232c1.075-.158 2.188-.333 3.319-.527a151.387 151.387 0 0 0-2.999 1.517c-7.184 3.731-11.7 11.197-11.53 19.291l.004.157a1.912 1.912 0 0 0 2.041 1.854c2.653-.179 6.071-.376 8.169-1.048a.89.89 0 0 1 1.162.85c.004 2.171.86 5.393 1.53 8.067a1.909 1.909 0 0 0 2.406 1.367c.303-.093.621-.197.951-.312a21.401 21.401 0 0 0 14.056-16.62c.182-1.071.359-2.184.524-3.32.163 1.134.337 2.248.516 3.321 1.328 7.986 7.034 14.587 14.784 16.927l.151.045a1.912 1.912 0 0 0 2.394-1.368c.649-2.579 1.519-5.889 1.528-8.093a.89.89 0 0 1 1.167-.843c2.066.667 5.395.848 8.145 1.038a1.91 1.91 0 0 0 2.044-1.866c.005-.316.004-.651-.003-1.001a21.398 21.398 0 0 0-11.463-18.503 135.815 135.815 0 0 0-2.995-1.524c1.129.195 2.242.374 3.317.536 8.005 1.204 16.047-2.182 20.667-8.83l.089-.13a1.91 1.91 0 0 0-.558-2.699z" opacity="1" data-original="url(#D)"></path>
    <path fill="url(#E)" d="M304.897 193.051c-2.252-1.414-5.132-3.264-7.225-3.954a.89.89 0 0 1-.441-1.371c1.273-1.759 2.474-4.869 3.504-7.426a1.908 1.908 0 0 0-1.143-2.52 25.853 25.853 0 0 0-.953-.306 21.4 21.4 0 0 0-21.14 5.184c-.777.759-1.574 1.556-2.375 2.378a157.025 157.025 0 0 0 1.535-2.99c3.619-7.241 2.884-15.936-2.011-22.384l-.096-.125a1.913 1.913 0 0 0-2.741-.301c-2.041 1.704-4.69 3.872-5.993 5.649a.89.89 0 0 1-1.44-.004c-1.279-1.754-3.866-3.857-5.98-5.627a1.909 1.909 0 0 0-2.75.308c-.19.253-.386.525-.586.812a21.4 21.4 0 0 0-1.603 21.707 138.2 138.2 0 0 0 1.527 2.994c-.799-.822-1.594-1.62-2.369-2.383-5.769-5.68-14.265-7.667-21.91-5.004l-.149.052a1.913 1.913 0 0 0-1.133 2.514c.99 2.468 2.233 5.657 3.521 7.445a.89.89 0 0 1-.449 1.368c-2.064.675-4.863 2.485-7.2 3.948a1.908 1.908 0 0 0-.557 2.71c.182.259.38.529.591.808a21.4 21.4 0 0 0 20.15 8.232c1.075-.158 2.188-.333 3.319-.527a151.387 151.387 0 0 0-2.999 1.517c-7.184 3.731-11.7 11.197-11.53 19.291l.004.157a1.912 1.912 0 0 0 2.041 1.854c2.653-.179 6.071-.376 8.169-1.048a.89.89 0 0 1 1.162.85c.004 2.171.86 5.393 1.53 8.067a1.909 1.909 0 0 0 2.406 1.367c.303-.093.621-.197.951-.312a21.401 21.401 0 0 0 14.056-16.62c.182-1.071.359-2.184.524-3.32.163 1.134.337 2.248.516 3.321 1.328 7.986 7.034 14.587 14.784 16.927l.151.045a1.912 1.912 0 0 0 2.394-1.368c.649-2.579 1.519-5.889 1.528-8.093a.89.89 0 0 1 1.167-.843c2.066.667 5.395.848 8.145 1.038a1.91 1.91 0 0 0 2.044-1.866c.005-.316.004-.651-.003-1.001a21.4 21.4 0 0 0-11.463-18.504 135.815 135.815 0 0 0-2.995-1.524c1.129.195 2.242.374 3.317.536 8.005 1.204 16.047-2.182 20.667-8.83l.089-.13a1.907 1.907 0 0 0-.558-2.698z" opacity="1" data-original="url(#E)"></path>
  </g>
</svg>
