<svg xmlns="http://www.w3.org/2000/svg" version="1.1" xmlns:xlink="http://www.w3.org/1999/xlink" width="512" height="512" x="0" y="0" viewBox="0 0 1000 1000" style="enable-background:new 0 0 512 512" xml:space="preserve" class="">
  <g transform="matrix(1.3599999999999992,0,0,1.3599999999999992,-99.94289794921815,-132.26199798583912)">
    <g stroke-width=".094">
      <path stroke="#000" d="M596.42 106.47c3.18-3.3 8.06-5.23 12.61-4.07 4.74 1.06 8.42 4.49 11.98 7.57 11.81 11.39 22.01 24.37 31.06 38.02 13.4 20.33 24.04 42.57 30.56 66.06 4.26 16.56 7.03 33.79 5.45 50.92-1.08 8.72-2.51 18.2-8.75 24.88 7.79 2.65 16.01 4 23.62 7.19 4.04 1.65 7.89 5.23 7.49 9.97-.65 6.95-4.67 12.97-7.09 19.33 10.13 2.01 21.43 3.5 29.05 11.2 7.14 7.91 6.93 19.48 5.56 29.4-3.44 20.41-12.94 39.38-24.81 56.16-23.27 31.28-54.47 55.86-87.84 75.6 4.23 4.98 8.23 10.17 11.68 15.72 1.96-.2 3.35-2.16 5.06-3.11 11.76-7.37 23.28-15.32 33.32-24.95 3.96-8.86 6.28-18.71 12.83-26.2 5.26-6.75 13.51-10.14 21.65-11.89 8.66-1.49 17.02 3.11 23.19 8.8 7.43-.61 15.93.89 20.87 6.99 4.95 6.34 5.19 15.19 3.14 22.68 6.03 4.22 7.44 12.35 5.75 19.12-2.91 11.67-11.5 21.26-21.7 27.29-13.32 9.83-25.36 21.23-37.69 32.24-15.78 14.21-31.14 28.86-46.54 43.48-3.24 2.79-5.85 6.29-9.38 8.72-11.63 31.85-30 60.99-52.12 86.58 1.88 13.14 5.82 26.1 11.24 38.25 2.08 3.73 3.38 8.36 7.07 10.86 13.19 2.82 24.8 14.15 26.46 27.76.73 9.05-3.18 18.11-9.67 24.35-9.16 9.73-21.88 14.93-34.47 18.58-11.12 2.56-22.72 4.12-34.14 2.61-10.07-.92-20.41-4.78-27.14-12.58-17.76 9.9-38.56 13.15-58.68 12.7-7.61-.39-16.66-1.48-21.32-8.31-1.82-2-1.18-6.15-4.61-6.28-17.41-.37-35.04-3.13-51.02-10.33-12.83-5.23-24.62-13.08-33.92-23.4-17.31 9.33-36.18 16.06-55.66 18.94-19.3 2.59-39.12 1.39-57.92-3.7-36.66-10.83-69.61-34.68-90.18-67.04-11.84-19.07-19.74-40.51-23.42-62.64-4.01-24.8-4.36-50.27-.26-75.08 2.87-19.26 8.72-37.87 13.57-56.68 3.24-13.36 5.94-27.54 2.41-41.11-2.64-10.56-10.27-20.28-20.78-23.79-2.37-1.15-5.65.48-7.4-1.89-1.14-2.63.35-5.5.76-8.15 1.94-9.07 6.71-17.28 12.66-24.3 9.36-11.04 20.58-20.35 32.42-28.61 15.77-10.97 34.06-19.65 53.57-20.23 20.02-.88 40.09 5.96 55.89 18.16 16.15 12.22 28.19 29.29 36.02 47.85 10.06 23.24 13.9 48.52 17.41 73.42 3.2 22.31 5.77 44.91 13.02 66.36 5.11 15.13 13.18 30.08 26.49 39.48 21.7-29.84 48.95-55.1 70.95-84.69.8-1.69 3.03-3 2.88-4.89-23.78-1.44-47.6-6.59-68.88-17.56-11.37-5.95-22.54-13.19-30.2-23.7-4.18-5.55-6.61-12.89-4.78-19.78 2.28-8.92 8.39-16.16 14.02-23.2-6.04-3.24-13.12-5.12-18.14-10.04-3.42-3.35-2.74-8.65-.75-12.56 3.67-7.31 8.95-13.66 13.03-20.73-4.49-.39-8.67-2.29-12.44-4.66-10.49-7.01-19.01-16.57-26.09-26.93-16.24-23.37-26.04-50.67-31.54-78.45-3.9-20.81-5.65-42.11-3.97-63.24.75-6.1 1.57-13.24 6.97-17.12 6.09-4.22 13.9-2.04 20.37.01 21.8 8.15 40.96 22.26 57.31 38.63 10.67 11.29 20.52 23.9 25.93 38.61 2.9-4.32 5.27-9 8.39-13.19 14.9-20.66 36.21-35.82 58.76-47.18 15.11-6.85 30.88-12.6 47.33-15.24 24.73-4.45 50.88-4.1 74.55 5.08-6.55-18.36-6.95-38.35-4.65-57.53 1.82-14.81 5.42-29.42 10.98-43.27 3.26-7.58 6.76-15.32 12.62-21.27m6.42 5.29c-5.36 5.16-8.33 12.14-11.28 18.83-6.77 16.79-10.59 34.74-11.61 52.8-.05.37-.14 1.12-.19 1.5-.35 16.14.71 32.93 7.74 47.72 5.25 3.3 11.09 5.92 16.32 9.4-6.07-17.19-8.09-35.93-5.42-53.99 2.02-12.97 5.99-26.09 13.9-36.76 2.18-3.44 7.49-5.74 10.64-2.18 13.95 16.85 23.59 36.93 29.83 57.8 5.66 20.09 8.7 41.46 4.86 62.17-.7 3.03-1.51 6.03-2.62 8.94 4.76 3.66 10.62 6.15 16.11 8.72 4.25-2.46 5.69-7.98 7.02-12.48 3.67-15.37 2.12-31.41-.86-46.76-.36-1.03-.22-2.41-1.06-3.16.32-2.76-1.09-5.43-1.56-8.14-9.42-33.56-27.22-64.53-50.16-90.68-5.07-5.43-9.98-11.31-16.56-14.96l-.88.12c-1.31-.91-3.12.32-4.22 1.11m15.51 44.67c-13.39 20.33-15.82 46.34-10.97 69.79 1.89 8.67 4.5 17.44 9.73 24.73 2.21 2.11 4.99 3.52 7.35 5.47 7.36 6.04 15.31 11.38 22.93 17.11l.72-.21c.67-2.34 1.26-4.71 1.68-7.1 3.4-20.46-.01-41.51-6.18-61.12-5.56-17.49-13.76-34.31-25.26-48.67m-329.73 73.14c-1.61 2.54-1.84 5.65-2.34 8.56-1.25 11.85-.91 23.82-.01 35.69 2.66 30.63 10.4 61.19 25.27 88.24 7.97 14.13 17.56 27.82 30.8 37.5 4.02 2.63 8.53 5.47 13.53 5.17 2.77-5.43 4.82-11.2 6.8-16.95-2.43-2.06-5.7-3.48-8.22-5.66-16.35-13.05-28.07-31.05-36.81-49.85l.01-.04c-8.16-17.68-13.76-36.69-15.1-56.17-.13-3.68-1.61-8.16 1.39-11.12 3.14-2.54 7.44-1.45 10.97-.52 10.91 3.31 20.85 9.28 29.66 16.45 14.43 12 25.81 27.73 32.69 45.2l.57-.37c1.66-5.64 3.83-11.12 5.93-16.6-4.37-15.85-14.51-29.34-25.49-41.26-.8-1.15-1.7-2.48-2.99-3.05-10.74-10.58-22.78-19.89-35.93-27.31-7.03-3.86-14.33-7.56-22.21-9.3-2.8-.51-6.56-1.31-8.52 1.39m202.43 4.82c-15.93 5.01-31.92 10.56-46.07 19.6-13.36 8.2-25.99 17.92-36.09 29.98-12.33 14.36-20.05 32.08-24.85 50.24-6.2 22.85-8.73 46.79-18.14 68.69-3.81 9.23-9.21 17.68-14.82 25.9-2.19 3.31-4.61 6.61-5.65 10.51 1.23 1.94 3.61 2.7 5.52 3.83 5 2.38 9.96 4.89 15.2 6.73 2.13 1.14 2.3 4.18.9 5.98-4.32 6.69-9.86 12.58-13.5 19.72-1.02 2.25-2.12 4.62-2.08 7.14-.65 5.54 3.04 10.44 6.5 14.41 9.6 10.39 22.4 17.18 35.31 22.59 19.86 8.25 41.41 11.26 62.76 12.22 27.5.87 55.16-1.67 81.97-7.91 9.24-2.76 18.63-5.03 27.77-8.13 16.56-5.21 32.19-12.84 47.81-20.32a318.374 318.374 0 0 0 68.9-50.16c11.73-11.72 22.96-24.18 31.3-38.6 7.91-13.49 14.33-28.22 16.31-43.84.61-7.09.97-15.63-4.73-20.89-8.47-6.39-19.6-6.4-29.36-9.55-2.11-.55-3.71-3.14-2.62-5.18 2.72-4.74 4.74-9.84 6.95-14.83.66-2.07 1.95-4.16 1.63-6.39-3.25-2.42-7.35-3.22-11.16-4.31-7.06-1.9-14.13-3.85-20.91-6.6-25.43-10.11-45.24-29.73-67.91-44.33-13.47-9.22-28.74-16.32-44.84-19.61-21.88-4.4-44.57-2.05-66.1 3.11m-180.73 37.17c1.51 27.51 11.08 54.24 25.73 77.44 6.25 9.48 13.44 18.51 22.25 25.74l-.08.07c2.31 1.49 4.37 3.35 6.81 4.65 2.41-9.59 4.74-19.25 6.43-28.96.71-3.79 2.61-7.57 1.5-11.48-2.46-12.9-9.3-24.51-16.97-35-11.55-14.91-27.2-27.57-45.67-32.46M199.75 397.73c-10.92 4.26-20.87 10.69-30.21 17.71-8.9 6.69-17.34 14.09-24.61 22.55-5.32 6.19-9.74 13.36-11.38 21.45 6.89 2.1 13.58 5.97 18.33 11.62 9 9.91 12.06 23.85 11.47 36.93-1.04 21.52-9.11 41.76-13.67 62.62-6.48 26.57-8.37 54.28-5.08 81.45 2.13 19.73 7.53 39.14 16.37 56.92 15.07 31.05 42.05 55.48 73.35 69.58 23.14 10.73 49.42 14.03 74.62 10.56 17.81-2.71 35.01-8.85 51.02-17.03-9.84-13.5-16.83-29.32-18.76-45.99-.19-3.03-.46-6.05-.43-9.08-.72-29.37 12.36-57.05 28.16-81.03-5.74-4.12-10.67-9.27-15.08-14.75-6.18-9.09-11.27-18.99-14.56-29.5-7.88-23.77-10.39-48.81-13.99-73.46-4.4-30.57-10.26-62.37-28.59-88.03-12.82-18.41-32.3-32.82-54.61-36.95-14.16-2.64-29.07-1.21-42.35 4.43m494.14 70.13c-4.83 5.63-7.18 12.79-9.56 19.66-2.29 3.23-4.91 6.23-7.85 8.87-5.7 5.07-12.05 9.35-18.21 13.83-5.05 3.22-9.4 7.37-14.5 10.53-2.49 1.89-.17 5.1.94 7.17 1.49 4.19 3.44 8.22 4.83 12.47 7.02 19.72 6.94 41.34 2.64 61.65l.75-.31c19.08-18.19 37.77-36.84 57.73-54.1l.35-.81c2.97-1.63 5.34-4.36 8.03-6.49 7.33-6.12 14.79-12.08 22.59-17.59 5.79-4.53 10.63-10.58 12.84-17.67.99-3.21 1.23-6.94-.66-9.87-1.59-2.82-5.13-4.03-6.08-7.29 1.09-3.58 2.51-7.27 1.9-11.08-1.29-4.75-4.38-9.44-9.14-11.2-4.24-1.52-9.2.89-12.94-2.21-3.79-3.84-8.91-6.96-14.5-6.64-7.75.32-14.34 5.38-19.16 11.08m-87.21 40.73c3.14.45 5.08 3.39 5.41 6.36.65 6.45-.56 12.92-2.32 19.11-1.78 5.49-4.01 10.91-7.51 15.54 5.35-1.02 10.3-3.53 15.66-4.46 3.91-.6 7.12 3.02 6.87 6.79-.16 7.24-1.17 14.76-4.56 21.25-2.89 4.8-8.04 10.02-14.18 8.45.13-.29.39-.88.53-1.17 7.1-7.36 10.35-17.68 10.79-27.73-6.65 2.07-13.4 4.5-20.45 4.33-2.21-.17-4.95-2.56-3.63-4.87 2.05-4.21 4.41-8.26 6.35-12.52l.19.04c2.86-7.53 5.44-15.44 4.93-23.62-1.96-.29-3.82.72-5.67 1.19-14.91 5.05-30 9.86-45.63 12.05-1.57.11-3.17-.03-4.69.39-6.69 1.97-13.46 3.62-20.31 4.92-23.43 4.37-47.31 6.44-71.14 5.7-4.67 6.93-9.86 13.61-14.69 20.41l-.34-.09c-22.71 28.11-49.13 53.28-69.07 83.59-11.21 17.18-19.96 36.3-23.39 56.62-1.23 9.33-1.3 18.86.02 28.18 4.48 24.26 19.16 47 40.77 59.35 17.82 10.01 38.32 15.62 58.82 14.92 3.43.27 7.28.94 9.48 3.89 1.65 3.45 1.9 8.26 6.26 9.5 6.97 2.39 14.52 2.02 21.78 1.75 14.35-1.06 29.05-3.7 41.76-10.73-.21-5.22-1.6-10.73-4.9-14.89-2.79-3.55-7.3-5.58-11.79-5.41-2.7-.15-6.08 1.09-8.1-1.36-1.82-2.45.13-5.76 2.86-6.33 6.9-1.66 14.57-.03 20.11 4.47-.65-4.7-1.66-9.38-3.56-13.75-6.64-2.3-13.73.45-20.35 1.72-1.74-.02-3.79.39-5.19-.89-1.43-1.23-1.2-3.21-.78-4.81 1.74-3.53 1.75-7.65 2.04-11.49.43-16.89-3.51-34.47-13.97-48.04-11.21-14.87-28.63-24.54-46.97-27.16-4.66-.87-9.48-.55-14.06-1.77-2.26-.45-2.75-3.62-.82-4.79 3.08-2.22 7.15-2.18 10.79-2.05 21.96 1.59 43.28 12.48 56.78 29.99 4.3 5.08 7.13 11.2 10.16 17.01-7.07-27.03-7.91-55.57-3.4-83.09.6-2.43 1.23-6.44 4.37-6.52 2.02 1.35 1.74 4.25 1.97 6.4-.03 9.87-1.59 19.7-1.23 29.6-.68 32.18 7.05 64.68 23.1 92.67 4.13 7.19 7.13 15.01 8.81 23.13.8 6.55 1.52 13.11 1.82 19.71 1.49 8.75 10.01 13.99 17.8 16.62 13.19 3.43 27.33 2.54 40.34-1.23 2.07-5.38.4-11.61-2.72-16.24-1.93-3.06-5.43-4.28-8.67-5.38-2.29-.81-3.3-3.65-2-5.72 4.07-3.63 9.65-.33 13.48 2.07 6.36 5.56 9.47 14.27 8.76 22.62 11.13-4.42 22.93-11.27 27.44-22.98-.46-4.03-4.55-6.87-7.97-8.63-2.99-.49-4.53-4.51-2.18-6.62 3-2.39 6.77-.14 9.62 1.35-2.68-5.76-7.56-10.27-13.15-13.17-3.4-1.33-7.23-1.55-10.21-3.84-3.52-3.69-5.54-8.5-7.83-12.98-9.02-19.74-12.95-41.37-14.82-62.86-1.36-17.91-1.76-35.96-.36-53.88.75-2.61.59-6.12 3.11-7.73 2.28.83 2.21 3.65 2.8 5.64.96 8.9.37 17.88.87 26.82a363.02 363.02 0 0 0 2.68 39.12c1.79-.71 2.48-2.75 3.8-4.04 10.82-13.83 21.22-28.4 28.76-44.21l.51-.29c10.64-19.98 19.05-41.72 20.36-64.5 1.24-20.18-4.18-40.49-14.58-57.75-4.03-7.01-8.77-13.63-14.21-19.62-3.68 2.17-7.94 3.45-11.36 5.94M505.2 731.79c1.36 10.27 2.83 20.85.74 31.19 4.22-.88 8.5-1.56 12.83-1.46-5.39-9.48-10.07-19.41-13.57-29.73z" fill="#000000" opacity="1" data-original="#000000" class=""></path>
      <path fill="#fddab6" stroke="#fddab6" d="M602.84 111.76c1.1-.79 2.91-2.02 4.22-1.11-9.79 10-14.83 23.41-18.7 36.59-4.22 11.68-6.5 23.93-8.41 36.15 1.02-18.06 4.84-36.01 11.61-52.8 2.95-6.69 5.92-13.67 11.28-18.83z" opacity="1" data-original="#fddab6" class=""></path>
      <path fill="#853412" stroke="#853412" d="m607.06 110.65.88-.12c6.58 3.65 11.49 9.53 16.56 14.96 22.94 26.15 40.74 57.12 50.16 90.68.47 2.71 1.88 5.38 1.56 8.14-7.56-6.14-15.09-12.37-23.45-17.43-6.24-20.87-15.88-40.95-29.83-57.8-3.15-3.56-8.46-1.26-10.64 2.18-7.91 10.67-11.88 23.79-13.9 36.76-.04-.54-.11-1.63-.15-2.17-6.1-1.02-12.33-.99-18.49-.96.05-.38.14-1.13.19-1.5 1.91-12.22 4.19-24.47 8.41-36.15 3.87-13.18 8.91-26.59 18.7-36.59z" opacity="1" data-original="#853412" class=""></path>
      <path fill="#fddab6" stroke="#fddab6" d="M618.35 156.43c11.5 14.36 19.7 31.18 25.26 48.67 6.17 19.61 9.58 40.66 6.18 61.12-8-2.62-15.6-6.26-23.28-9.65-.51-.04-1.54-.11-2.05-.15-2.36-1.95-5.14-3.36-7.35-5.47-5.23-7.29-7.84-16.06-9.73-24.73-4.85-23.45-2.42-49.46 10.97-69.79z" opacity="1" data-original="#fddab6" class=""></path>
      <path fill="#fc6515" stroke="#fc6515" d="M579.76 184.89c6.16-.03 12.39-.06 18.49.96.04.54.11 1.63.15 2.17-2.67 18.06-.65 36.8 5.42 53.99-5.23-3.48-11.07-6.1-16.32-9.4-7.03-14.79-8.09-31.58-7.74-47.72zM652.77 206.88c8.36 5.06 15.89 11.29 23.45 17.43.84.75.7 2.13 1.06 3.16 2.98 15.35 4.53 31.39.86 46.76-6.88-1.57-13.69-3.41-20.51-5.18 3.84-20.71.8-42.08-4.86-62.17z" opacity="1" data-original="#fc6515" class=""></path>
      <path fill="#fddab6" stroke="#fddab6" d="M288.62 229.57c1.96-2.7 5.72-1.9 8.52-1.39 7.88 1.74 15.18 5.44 22.21 9.3 13.15 7.42 25.19 16.73 35.93 27.31l-.96-.36c-8.84-7.64-18.36-14.48-28.53-20.25-11.24-7.22-23.61-13.62-37.17-14.61zM491.05 234.39c21.53-5.16 44.22-7.51 66.1-3.11 16.1 3.29 31.37 10.39 44.84 19.61-10.27-4.68-20.63-9.43-31.66-12.05-23.98-6.42-49.53-5.3-73.39 1.06-22.19 6.06-43.85 15.03-62.66 28.41-18.01 12.58-32.77 29.7-42.71 49.27-2.89 5.37-5.11 11.05-7.53 16.63 4.8-18.16 12.52-35.88 24.85-50.24 10.1-12.06 22.73-21.78 36.09-29.98 14.15-9.04 30.14-14.59 46.07-19.6z" opacity="1" data-original="#fddab6" class=""></path>
      <path fill="#853412" stroke="#853412" d="M286.28 238.13c.5-2.91.73-6.02 2.34-8.56 13.56.99 25.93 7.39 37.17 14.61 10.17 5.77 19.69 12.61 28.53 20.25l.96.36c1.29.57 2.19 1.9 2.99 3.05-4.93 3.93-9.64 8.2-13.7 13.03-8.81-7.17-18.75-13.14-29.66-16.45-3.53-.93-7.83-2.02-10.97.52-3 2.96-1.52 7.44-1.39 11.12 1.34 19.48 6.94 38.49 15.1 56.17l-.01.04c-3.14 9.64-5.31 19.68-6.1 29.79-14.87-27.05-22.61-57.61-25.27-88.24-.9-11.87-1.24-23.84.01-35.69z" opacity="1" data-original="#853412" class=""></path>
      <path fill="#fc6515" stroke="#fc6515" d="M496.94 239.9c23.86-6.36 49.41-7.48 73.39-1.06 11.03 2.62 21.39 7.37 31.66 12.05 22.67 14.6 42.48 34.22 67.91 44.33 6.78 2.75 13.85 4.7 20.91 6.6-19.03 29.75-40.76 58.15-67.52 81.39-1.46 1.12-3.06 2.16-4.88 2.53 5.49-4.53 8.11-11.83 7.28-18.84-1.43-13.81-12.27-26.23-25.8-29.41-7.39-1.88-16.13.2-20.78 6.53-5.16 6.7-5.01 16.11-1.92 23.67 5.01 12.81 18.36 23 32.41 21.56-.11.23-.32.68-.43.91-2.17-1.56-4.73-.01-7.11-.31-12.77.6-23.69-7.33-36.11-8.75-16.4-2.61-32.98 2.05-47.62 9.26-12.59 6.41-23.31 16.65-29.64 29.34-4.05 7.77-9.09 15.45-16.71 20.14 11.97-10.88 13.26-30.9 3.88-43.81-4.18-5.89-11.47-9.97-18.81-8.84-7.7 1.06-13.83 7.08-16.93 13.94-5.69 12.4-3.76 28.71 6.45 38.22 4.42 4.04 10.66 6.06 16.59 4.86-2.96.91-5.99 1.89-9.13 1.72-34.98-.14-69.51-7.31-102.95-17.13 5.61-8.22 11.01-16.67 14.82-25.9 9.41-21.9 11.94-45.84 18.14-68.69 2.42-5.58 4.64-11.26 7.53-16.63 9.94-19.57 24.7-36.69 42.71-49.27 18.81-13.38 40.47-22.35 62.66-28.41m85.27 55.28c-17.24 4.67-29.58 22.18-29.22 39.85.04 3.38 2.32 7.11 6.03 7.16 5.03-.93 7.67-5.78 10.73-9.36 6.3-8.03 14.17-14.57 21.92-21.12 3.56-2.97 6.66-8.04 4.27-12.64-2.51-4.96-9-5.46-13.73-3.89M437.5 349.63c-5.1 1.15-10.41 2.88-14.19 6.67-2.98 2.89-3.69 8.07-.82 11.29 3.02 3.59 8.15 3.75 12.48 3.67 9.33-.3 18.74-.16 27.94 1.56 4.37.67 9.02 2.33 13.34.5 3.71-2.05 3.03-7.32.49-10.04-9.38-11.07-25.02-16.45-39.24-13.65z" opacity="1" data-original="#fc6515" class=""></path>
      <path fill="#c79d7c" stroke="#c79d7c" d="M624.46 256.42c.51.04 1.54.11 2.05.15 7.68 3.39 15.28 7.03 23.28 9.65-.42 2.39-1.01 4.76-1.68 7.1l-.72.21c-7.62-5.73-15.57-11.07-22.93-17.11z" opacity="1" data-original="#c79d7c" class=""></path>
      <path fill="#fc6515" stroke="#fc6515" d="M344.57 280.87c4.06-4.83 8.77-9.1 13.7-13.03 10.98 11.92 21.12 25.41 25.49 41.26-2.1 5.48-4.27 10.96-5.93 16.6l-.57.37c-6.88-17.47-18.26-33.2-32.69-45.2z" opacity="1" data-original="#fc6515" class=""></path>
      <path fill="#c7490e" stroke="#c7490e" d="M657.63 269.05c6.82 1.77 13.63 3.61 20.51 5.18-1.33 4.5-2.77 10.02-7.02 12.48-5.49-2.57-11.35-5.06-16.11-8.72 1.11-2.91 1.92-5.91 2.62-8.94z" opacity="1" data-original="#c7490e" class=""></path>
      <path fill="#fddab6" stroke="#fddab6" d="M310.32 271.56c18.47 4.89 34.12 17.55 45.67 32.46 7.67 10.49 14.51 22.1 16.97 35 1.11 3.91-.79 7.69-1.5 11.48-5.23 7.5-7.25 17.15-13.16 24.24-8.81-7.23-16-16.26-22.25-25.74-14.65-23.2-24.22-49.93-25.73-77.44zM582.21 295.18c4.73-1.57 11.22-1.07 13.73 3.89 2.39 4.6-.71 9.67-4.27 12.64-7.75 6.55-15.62 13.09-21.92 21.12-3.06 3.58-5.7 8.43-10.73 9.36-3.71-.05-5.99-3.78-6.03-7.16-.36-17.67 11.98-35.18 29.22-39.85zM690.81 301.82c3.81 1.09 7.91 1.89 11.16 4.31.32 2.23-.97 4.32-1.63 6.39-2.21 4.99-4.23 10.09-6.95 14.83-1.09 2.04.51 4.63 2.62 5.18 9.76 3.15 20.89 3.16 29.36 9.55-1.39 7.99-3.97 15.75-6.87 23.31-1.57 4.46-5.14 7.75-7.24 11.93-25.89 43.65-66.49 77.09-111.58 99.55-31.93 16.71-67.07 26.59-102.65 31.66-34.29 4.38-69.57 2.95-102.91-6.6-6.3-1.72-12.41-4.13-18.82-5.45-8.6-3.39-15.81-9.37-23.83-13.77-.04-2.52 1.06-4.89 2.08-7.14 3.64-7.14 9.18-13.03 13.5-19.72 1.4-1.8 1.23-4.84-.9-5.98-5.24-1.84-10.2-4.35-15.2-6.73-1.91-1.13-4.29-1.89-5.52-3.83 1.04-3.9 3.46-7.2 5.65-10.51 33.44 9.82 67.97 16.99 102.95 17.13 3.14.17 6.17-.81 9.13-1.72 3.26-.71 6.18-2.38 8.82-4.37 7.62-4.69 12.66-12.37 16.71-20.14 6.33-12.69 17.05-22.93 29.64-29.34 14.64-7.21 31.22-11.87 47.62-9.26 12.42 1.42 23.34 9.35 36.11 8.75 2.38.3 4.94-1.25 7.11.31.11-.23.32-.68.43-.91 3.13-.58 6.11-1.8 8.81-3.51 1.82-.37 3.42-1.41 4.88-2.53 26.76-23.24 48.49-51.64 67.52-81.39M540.3 404.5c-6.88 3-14.54 4.54-20.61 9.19-2.23 1.62-3.28 4.92-1.75 7.36 1.92 3.15 5.9 3.59 9.17 4.4 3.62.98 7.42.91 11.09.25 1.08 3.61 1.26 8.02-1.78 10.77-4.11 4.03-10.4 2.91-15.49 1.95-3.33-.58-5.05 4.05-2.47 5.99 3.51 2.66 8.23 3.03 12.49 2.86 7.29-.34 14.06-5.61 15.87-12.73 5.54 3.78 13.22 3.85 18.85.21 3.94-2.57 7.53-6.23 8.95-10.81 1.09-3.01-2.82-6.11-5.3-3.81-3.49 4.02-7.27 9.32-13.25 9.05-4.08.01-6.75-3.38-8.48-6.65 2.09-2.14 5.06-3.49 6.83-6.05 2.07-2.98 4.94-5.74 5.45-9.48.43-3.27-2.57-6.18-5.78-5.98-4.79.07-9.34 1.87-13.79 3.48z" opacity="1" data-original="#fddab6" class=""></path>
      <path fill="#fc6515" stroke="#fc6515" d="M311.54 362.06c.79-10.11 2.96-20.15 6.1-29.79 8.74 18.8 20.46 36.8 36.81 49.85-2.46 4.53-5.76 8.52-8.5 12.87-1.03 1.65-2.09 3.31-3.61 4.57-13.24-9.68-22.83-23.37-30.8-37.5z" opacity="1" data-original="#fc6515" class=""></path>
      <path stroke="#000" d="M579.11 344.02c4.65-6.33 13.39-8.41 20.78-6.53 13.53 3.18 24.37 15.6 25.8 29.41.83 7.01-1.79 14.31-7.28 18.84-2.7 1.71-5.68 2.93-8.81 3.51-14.05 1.44-27.4-8.75-32.41-21.56-3.09-7.56-3.24-16.97 1.92-23.67m11.37 1.65c-6.3 2.17-8.65 10.93-4.17 15.88 3.35 4.34 10.33 4.93 14.37 1.23 4.28-3.45 4.75-10.5.91-14.44-2.67-3.13-7.32-4.09-11.11-2.67z" fill="#000000" opacity="1" data-original="#000000" class=""></path>
      <path fill="#c79d7c" stroke="#c79d7c" d="M725.37 342.08c5.7 5.26 5.34 13.8 4.73 20.89-1.98 15.62-8.4 30.35-16.31 43.84-8.34 14.42-19.57 26.88-31.3 38.6a318.374 318.374 0 0 1-68.9 50.16c-15.62 7.48-31.25 15.11-47.81 20.32-9.14 3.1-18.53 5.37-27.77 8.13-26.81 6.24-54.47 8.78-81.97 7.91-21.35-.96-42.9-3.97-62.76-12.22-12.91-5.41-25.71-12.2-35.31-22.59-3.46-3.97-7.15-8.87-6.5-14.41 8.02 4.4 15.23 10.38 23.83 13.77 6.41 1.32 12.52 3.73 18.82 5.45 33.34 9.55 68.62 10.98 102.91 6.6 35.58-5.07 70.72-14.95 102.65-31.66 45.09-22.46 85.69-55.9 111.58-99.55 2.1-4.18 5.67-7.47 7.24-11.93 2.9-7.56 5.48-15.32 6.87-23.31z" opacity="1" data-original="#c79d7c" class=""></path>
      <path fill="#fffffe" stroke="#fffffe" d="M590.48 345.67c3.79-1.42 8.44-.46 11.11 2.67 3.84 3.94 3.37 10.99-.91 14.44-4.04 3.7-11.02 3.11-14.37-1.23-4.48-4.95-2.13-13.71 4.17-15.88z" opacity="1" data-original="#fffffe"></path>
      <path fill="#fddab6" stroke="#fddab6" d="M437.5 349.63c14.22-2.8 29.86 2.58 39.24 13.65 2.54 2.72 3.22 7.99-.49 10.04-4.32 1.83-8.97.17-13.34-.5-9.2-1.72-18.61-1.86-27.94-1.56-4.33.08-9.46-.08-12.48-3.67-2.87-3.22-2.16-8.4.82-11.29 3.78-3.79 9.09-5.52 14.19-6.67z" opacity="1" data-original="#fddab6" class=""></path>
      <path fill="#c79d7c" stroke="#c79d7c" d="M358.3 374.74c5.91-7.09 7.93-16.74 13.16-24.24-1.69 9.71-4.02 19.37-6.43 28.96-2.44-1.3-4.5-3.16-6.81-4.65z" opacity="1" data-original="#c79d7c" class=""></path>
      <path fill="#c7490e" stroke="#c7490e" d="M354.45 382.12c2.52 2.18 5.79 3.6 8.22 5.66-1.98 5.75-4.03 11.52-6.8 16.95-5 .3-9.51-2.54-13.53-5.17 1.52-1.26 2.58-2.92 3.61-4.57 2.74-4.35 6.04-8.34 8.5-12.87z" opacity="1" data-original="#c7490e" class=""></path>
      <path stroke="#000" d="M440.12 401.13c3.1-6.86 9.23-12.88 16.93-13.94 7.34-1.13 14.63 2.95 18.81 8.84 9.38 12.91 8.09 32.93-3.88 43.81-2.64 1.99-5.56 3.66-8.82 4.37-5.93 1.2-12.17-.82-16.59-4.86-10.21-9.51-12.14-25.82-6.45-38.22m14.19-4.59c-5.84 2.12-8.93 9.56-6.09 15.14 2.43 5.76 10.13 8.36 15.52 5.14 5.56-2.82 7.6-10.58 4.15-15.76-2.71-4.47-8.73-6.56-13.58-4.52z" fill="#000000" opacity="1" data-original="#000000" class=""></path>
      <path fill="#fffffe" stroke="#fffffe" d="M199.75 397.73c13.28-5.64 28.19-7.07 42.35-4.43 22.31 4.13 41.79 18.54 54.61 36.95 18.33 25.66 24.19 57.46 28.59 88.03-1.51 2.46-4.25 3.6-6.7 4.88l-.25.07c-.86-9.86-3.59-19.48-5.18-29.25-3.58-20.05-8.03-40.58-18.98-58.07-4.87-8.24-11.81-14.97-18.95-21.23-12.4-10.44-28.36-15.52-44.18-17.86-6.01-.5-12.05-.44-18.08-.33-4.46-.03-8.75 1.6-13.23 1.24zM454.31 396.54c4.85-2.04 10.87.05 13.58 4.52 3.45 5.18 1.41 12.94-4.15 15.76-5.39 3.22-13.09.62-15.52-5.14-2.84-5.58.25-13.02 6.09-15.14z" opacity="1" data-original="#fffffe"></path>
      <path fill="#fddab6" stroke="#fddab6" d="M199.75 397.73c4.48.36 8.77-1.27 13.23-1.24 6.03-.11 12.07-.17 18.08.33 15.82 2.34 31.78 7.42 44.18 17.86 7.14 6.26 14.08 12.99 18.95 21.23 10.95 17.49 15.4 38.02 18.98 58.07 1.59 9.77 4.32 19.39 5.18 29.25-5.83 2.04-12.38 1.22-17.66-1.9 1.09 9.27-4.36 18.86-13.06 22.37-8.06 3.62-17.69 1.21-23.99-4.71.72 5.66.17 11.68-3.01 16.57-4.38 7.3-13.23 11.69-21.69 10.44-6.96-.9-13.37-5.4-16.4-11.75-1.4.03-.73 1.85-1.18 2.72-1.98 10.2-11.99 17.94-22.34 17.52-7.3-.09-14.15-4.29-17.97-10.44-3.81 6.23-10.75 10.47-18.1 10.54-4.74.22-9.32-1.46-13.27-3.98 4.56-20.86 12.63-41.1 13.67-62.62.59-13.08-2.47-27.02-11.47-36.93-4.75-5.65-11.44-9.52-18.33-11.62 1.64-8.09 6.06-15.26 11.38-21.45 7.27-8.46 15.71-15.86 24.61-22.55 9.34-7.02 19.29-13.45 30.21-17.71z" opacity="1" data-original="#fddab6" class=""></path>
      <path stroke="#000" d="M540.3 404.5c4.45-1.61 9-3.41 13.79-3.48 3.21-.2 6.21 2.71 5.78 5.98-.51 3.74-3.38 6.5-5.45 9.48-1.77 2.56-4.74 3.91-6.83 6.05 1.73 3.27 4.4 6.66 8.48 6.65 5.98.27 9.76-5.03 13.25-9.05 2.48-2.3 6.39.8 5.3 3.81-1.42 4.58-5.01 8.24-8.95 10.81-5.63 3.64-13.31 3.57-18.85-.21-1.81 7.12-8.58 12.39-15.87 12.73-4.26.17-8.98-.2-12.49-2.86-2.58-1.94-.86-6.57 2.47-5.99 5.09.96 11.38 2.08 15.49-1.95 3.04-2.75 2.86-7.16 1.78-10.77-3.67.66-7.47.73-11.09-.25-3.27-.81-7.25-1.25-9.17-4.4-1.53-2.44-.48-5.74 1.75-7.36 6.07-4.65 13.73-6.19 20.61-9.19z" fill="#000000" opacity="1" data-original="#000000" class=""></path>
      <path fill="#fddab6" stroke="#fddab6" d="M693.89 467.86c4.82-5.7 11.41-10.76 19.16-11.08 5.59-.32 10.71 2.8 14.5 6.64 3.74 3.1 8.7.69 12.94 2.21 4.76 1.76 7.85 6.45 9.14 11.2.61 3.81-.81 7.5-1.9 11.08.95 3.26 4.49 4.47 6.08 7.29 1.89 2.93 1.65 6.66.66 9.87-2.21 7.09-7.05 13.14-12.84 17.67-7.8 5.51-15.26 11.47-22.59 17.59-12.09-2-24.68-6.99-32.02-17.32-4.28-6.19-7.21-13.22-9.43-20.38-.52-2.05-1.35-4.1-1.11-6.24 2.94-2.64 5.56-5.64 7.85-8.87 2.38-6.87 4.73-14.03 9.56-19.66m13.44.47c-4.91 1.11-7.2 8.21-3.21 11.61 3.56 4.27 11.34 1.51 11.78-3.9.8-4.68-4.04-8.87-8.57-7.71m19.9 7.96c-3.62 1.83-4.45 7.21-1.31 9.89 3.16 3.19 9.39 1.36 10.2-3.11 1.44-4.92-4.58-9.31-8.89-6.78m-18.9 14.13c-3.48.99-6.65 3.53-7.93 6.97-2.31 5.89 1.4 13.31 7.65 14.68 6.78 1.95 14.41-3.98 13.87-11.07.06-6.82-7.04-12.17-13.59-10.58m32.01 5.03c-5.38.3-7.92 7.7-4.21 11.41 3.08 3.97 10.06 2.6 11.62-2.11 2.03-4.65-2.42-10.33-7.41-9.3z" opacity="1" data-original="#fddab6" class=""></path>
      <g fill="#f3b594" stroke="#f3b594">
        <path d="M707.33 468.33c4.53-1.16 9.37 3.03 8.57 7.71-.44 5.41-8.22 8.17-11.78 3.9-3.99-3.4-1.7-10.5 3.21-11.61zM727.23 476.29c4.31-2.53 10.33 1.86 8.89 6.78-.81 4.47-7.04 6.3-10.2 3.11-3.14-2.68-2.31-8.06 1.31-9.89zM708.33 490.42c6.55-1.59 13.65 3.76 13.59 10.58.54 7.09-7.09 13.02-13.87 11.07-6.25-1.37-9.96-8.79-7.65-14.68 1.28-3.44 4.45-5.98 7.93-6.97zM740.34 495.45c4.99-1.03 9.44 4.65 7.41 9.3-1.56 4.71-8.54 6.08-11.62 2.11-3.71-3.71-1.17-11.11 4.21-11.41z" fill="#f3b594" opacity="1" data-original="#f3b594" class=""></path>
      </g>
      <path fill="#fc6515" stroke="#fc6515" d="M658.27 510.22c6.16-4.48 12.51-8.76 18.21-13.83-.24 2.14.59 4.19 1.11 6.24 2.22 7.16 5.15 14.19 9.43 20.38 7.34 10.33 19.93 15.32 32.02 17.32-2.69 2.13-5.06 4.86-8.03 6.49-11.13 3.47-23.14 5.73-34.66 2.71-7.2-2.08-14.58-4.52-20.34-9.5-4.45-3.39-7.17-8.44-11.3-12.11-1.11-2.07-3.43-5.28-.94-7.17 5.1-3.16 9.45-7.31 14.5-10.53z" opacity="1" data-original="#fc6515" class=""></path>
      <path fill="#c79d7c" stroke="#c79d7c" d="M606.68 508.59c3.42-2.49 7.68-3.77 11.36-5.94 5.44 5.99 10.18 12.61 14.21 19.62-7.32 4.25-14.73 8.37-22.48 11.79 1.76-6.19 2.97-12.66 2.32-19.11-.33-2.97-2.27-5.91-5.41-6.36zM599.09 517.28c1.85-.47 3.71-1.48 5.67-1.19.51 8.18-2.07 16.09-4.93 23.62l-.19-.04c-.38-.1-1.16-.29-1.55-.39-10.62 4.13-21.28 8.19-32.19 11.49-3.39-7.57-7.94-14.51-12.44-21.44 15.63-2.19 30.72-7 45.63-12.05z" opacity="1" data-original="#c79d7c" class=""></path>
      <path fill="#fddab6" stroke="#fddab6" d="M325.3 518.28c3.6 24.65 6.11 49.69 13.99 73.46 3.29 10.51 8.38 20.41 14.56 29.5-4.5-4.3-8.25-9.46-11.38-14.83-9.23-18.42-15.89-38.18-19.47-58.48-1.53-8.25-3.11-16.49-4.4-24.77 2.45-1.28 5.19-2.42 6.7-4.88z" opacity="1" data-original="#fddab6" class=""></path>
      <path fill="#fc6515" stroke="#fc6515" d="M300.69 521.33c5.28 3.12 11.83 3.94 17.66 1.9l.25-.07c1.29 8.28 2.87 16.52 4.4 24.77 3.58 20.3 10.24 40.06 19.47 58.48 3.13 5.37 6.88 10.53 11.38 14.83 4.41 5.48 9.34 10.63 15.08 14.75-15.8 23.98-28.88 51.66-28.16 81.03-.03 3.03.24 6.05.43 9.08-29.58 2.81-59.9-3.26-86.13-17.24-14.1-7.6-27.24-17.09-38.49-28.53-10.91-10.22-19.91-22.21-28.72-34.23-6.82-8.32-10.52-18.6-14.64-28.4-4.28-10.22-6.48-21.12-9.45-31.72-2.56 7.79-3.45 16.06-4.27 24.2-1.8 41.58 8.67 83.62 29.78 119.48 6.8 11.75 15.7 22.14 25.31 31.67 5.6 5.53 11.76 10.5 18.43 14.67.72.56 2.48 1.47 1.3 2.56-31.3-14.1-58.28-38.53-73.35-69.58-8.84-17.78-14.24-37.19-16.37-56.92-3.29-27.17-1.4-54.88 5.08-81.45 3.95 2.52 8.53 4.2 13.27 3.98 7.35-.07 14.29-4.31 18.1-10.54 3.82 6.15 10.67 10.35 17.97 10.44 10.35.42 20.36-7.32 22.34-17.52.45-.87-.22-2.69 1.18-2.72 3.03 6.35 9.44 10.85 16.4 11.75 8.46 1.25 17.31-3.14 21.69-10.44 3.18-4.89 3.73-10.91 3.01-16.57 6.3 5.92 15.93 8.33 23.99 4.71 8.7-3.51 14.15-13.1 13.06-22.37z" opacity="1" data-original="#fc6515" class=""></path>
      <path fill="#fddab6" stroke="#fddab6" d="M609.77 534.06c7.75-3.42 15.16-7.54 22.48-11.79 10.4 17.26 15.82 37.57 14.58 57.75-1.31 22.78-9.72 44.52-20.36 64.5l-.51.29c-5.67 3.28-11.28 6.92-17.78 8.34-5.69 1.63-11.65 1.43-17.46.79-.5-8.94.09-17.92-.87-26.82-.59-1.99-.52-4.81-2.8-5.64-2.52 1.61-2.36 5.12-3.11 7.73-3.06-26.66-7.08-53.72-18.04-78.44 10.91-3.3 21.57-7.36 32.19-11.49.39.1 1.17.29 1.55.39-1.94 4.26-4.3 8.31-6.35 12.52-1.32 2.31 1.42 4.7 3.63 4.87 7.05.17 13.8-2.26 20.45-4.33-.44 10.05-3.69 20.37-10.79 27.73-.14.29-.4.88-.53 1.17 6.14 1.57 11.29-3.65 14.18-8.45 3.39-6.49 4.4-14.01 4.56-21.25.25-3.77-2.96-7.39-6.87-6.79-5.36.93-10.31 3.44-15.66 4.46 3.5-4.63 5.73-10.05 7.51-15.54z" opacity="1" data-original="#fddab6" class=""></path>
      <path fill="#c7490e" stroke="#c7490e" d="M644.71 527.92c4.13 3.67 6.85 8.72 11.3 12.11 5.76 4.98 13.14 7.42 20.34 9.5 11.52 3.02 23.53.76 34.66-2.71l-.35.81c-19.96 17.26-38.65 35.91-57.73 54.1l-.75.31c4.3-20.31 4.38-41.93-2.64-61.65-1.39-4.25-3.34-8.28-4.83-12.47zM548.77 529.72c1.52-.42 3.12-.28 4.69-.39 4.5 6.93 9.05 13.87 12.44 21.44-10.84 2.87-21.76 5.55-32.89 7.05-9.98.94-19.85 2.81-29.86 3.56-16.52 1.61-33.15 1.82-49.73 1.03-3.61-.41-7.38-.26-10.79-1.66 4.83-6.8 10.02-13.48 14.69-20.41 23.83.74 47.71-1.33 71.14-5.7 6.85-1.3 13.62-2.95 20.31-4.92z" opacity="1" data-original="#c7490e" class=""></path>
      <path fill="#fc6515" stroke="#fc6515" d="M533.01 557.82c11.13-1.5 22.05-4.18 32.89-7.05 10.96 24.72 14.98 51.78 18.04 78.44-1.4 17.92-1 35.97.36 53.88 1.87 21.49 5.8 43.12 14.82 62.86 2.29 4.48 4.31 9.29 7.83 12.98-12.65 10.09-27.59 17.23-43.35 20.88l-.43.06c-5.12-4.25-10.64-8.03-15.49-12.6-14.3-13.6-24.88-30.77-31.79-49.18-6.35-16.04-9.73-33.07-12.09-50.1a8.085 8.085 0 0 0-1.12-3.42c-.36-9.9 1.2-19.73 1.23-29.6-.23-2.15.05-5.05-1.97-6.4-3.14.08-3.77 4.09-4.37 6.52-4.51 27.52-3.67 56.06 3.4 83.09-3.03-5.81-5.86-11.93-10.16-17.01-13.5-17.51-34.82-28.4-56.78-29.99-3.64-.13-7.71-.17-10.79 2.05-1.93 1.17-1.44 4.34.82 4.79 4.58 1.22 9.4.9 14.06 1.77 18.34 2.62 35.76 12.29 46.97 27.16 10.46 13.57 14.4 31.15 13.97 48.04-.29 3.84-.3 7.96-2.04 11.49-4.81 7.31-10.81 13.78-17.56 19.33l-.24.19c-3.22-3.56-7.53-6.04-12.19-7.11-5.32-1.41-10.76.18-16.11.38-8.59.5-17.23 1.55-25.81.39-15.46-1.94-30.95-7.43-42.46-18.25-9.48-8.39-15.25-20.02-19.25-31.84-1.11-3.42-3.96-7.64-8.13-6.5.32 16.46 6.57 32.8 17.47 45.18 5.51 6.19 11.86 11.65 18.67 16.37 14.73 8.45 31.77 11.75 48.53 13.16 5.35.57 10.96.35 15.98 2.6l.06.24c-2.21.83-4.42 1.67-6.54 2.7-20.5.7-41-4.91-58.82-14.92-21.61-12.35-36.29-35.09-40.77-59.35-1.32-9.32-1.25-18.85-.02-28.18 3.43-20.32 12.18-39.44 23.39-56.62 19.94-30.31 46.36-55.48 69.07-83.59l.34.09c3.41 1.4 7.18 1.25 10.79 1.66 16.58.79 33.21.58 49.73-1.03 10.01-.75 19.88-2.62 29.86-3.56z" opacity="1" data-original="#fc6515" class=""></path>
      <path fill="#c7490e" stroke="#c7490e" d="M159.5 610.18c.82-8.14 1.71-16.41 4.27-24.2 2.97 10.6 5.17 21.5 9.45 31.72 4.12 9.8 7.82 20.08 14.64 28.4 8.81 12.02 17.81 24.01 28.72 34.23 11.25 11.44 24.39 20.93 38.49 28.53 26.23 13.98 56.55 20.05 86.13 17.24 1.93 16.67 8.92 32.49 18.76 45.99-16.01 8.18-33.21 14.32-51.02 17.03-25.2 3.47-51.48.17-74.62-10.56 1.18-1.09-.58-2-1.3-2.56-6.67-4.17-12.83-9.14-18.43-14.67-9.61-9.53-18.51-19.92-25.31-31.67-21.11-35.86-31.58-77.9-29.78-119.48z" opacity="1" data-original="#c7490e" class=""></path>
      <path fill="#c79d7c" stroke="#c79d7c" d="M608.18 653.15c6.5-1.42 12.11-5.06 17.78-8.34-7.54 15.81-17.94 30.38-28.76 44.21-1.32 1.29-2.01 3.33-3.8 4.04a363.02 363.02 0 0 1-2.68-39.12c5.81.64 11.77.84 17.46-.79z" opacity="1" data-original="#c79d7c" class=""></path>
      <path fill="#c7490e" stroke="#c7490e" d="M502.68 664.57c.63 1.05 1 2.19 1.12 3.42 2.36 17.03 5.74 34.06 12.09 50.1 6.91 18.41 17.49 35.58 31.79 49.18 4.85 4.57 10.37 8.35 15.49 12.6-9.35 2.14-19.18 2.62-28.58.5-1.68-8.12-4.68-15.94-8.81-23.13-16.05-27.99-23.78-60.49-23.1-92.67zM355.27 723.07c4.17-1.14 7.02 3.08 8.13 6.5 4 11.82 9.77 23.45 19.25 31.84 11.51 10.82 27 16.31 42.46 18.25 8.58 1.16 17.22.11 25.81-.39 5.35-.2 10.79-1.79 16.11-.38 4.66 1.07 8.97 3.55 12.19 7.11-7.11 5.74-14.8 10.94-23.3 14.38-5.02-2.25-10.63-2.03-15.98-2.6-16.76-1.41-33.8-4.71-48.53-13.16-6.81-4.72-13.16-10.18-18.67-16.37-10.9-12.38-17.15-28.72-17.47-45.18zM505.2 731.79c3.5 10.32 8.18 20.25 13.57 29.73-4.33-.1-8.61.58-12.83 1.46 2.09-10.34.62-20.92-.74-31.19z" opacity="1" data-original="#c7490e" class=""></path>
      <path fill="#fddab6" stroke="#fddab6" d="M563.6 779.81c15.76-3.65 30.7-10.79 43.35-20.88 2.98 2.29 6.81 2.51 10.21 3.84 5.59 2.9 10.47 7.41 13.15 13.17-2.85-1.49-6.62-3.74-9.62-1.35-2.35 2.11-.81 6.13 2.18 6.62-7.58 6.9-18.45 8.12-28.23 8.99-3.83-2.4-9.41-5.7-13.48-2.07-6.08-2.24-12.25-4.51-17.56-8.32zM479.46 785.81c6.75-5.55 12.75-12.02 17.56-19.33-.42 1.6-.65 3.58.78 4.81 1.4 1.28 3.45.87 5.19.89 6.62-1.27 13.71-4.02 20.35-1.72 1.9 4.37 2.91 9.05 3.56 13.75-5.54-4.5-13.21-6.13-20.11-4.47-2.73.57-4.68 3.88-2.86 6.33 2.02 2.45 5.4 1.21 8.1 1.36 4.49-.17 9 1.86 11.79 5.41-8.54 3.75-18.06 7.01-27.43 4.65-6.9-1.66-12.15-6.74-16.93-11.68z" opacity="1" data-original="#fddab6" class=""></path>
      <path fill="#c79d7c" stroke="#c79d7c" d="M534.59 780.37c9.4 2.12 19.23 1.64 28.58-.5l.43-.06c5.31 3.81 11.48 6.08 17.56 8.32-1.3 2.07-.29 4.91 2 5.72 3.24 1.1 6.74 2.32 8.67 5.38 3.12 4.63 4.79 10.86 2.72 16.24-13.01 3.77-27.15 4.66-40.34 1.23-7.79-2.63-16.31-7.87-17.8-16.62-.3-6.6-1.02-13.16-1.82-19.71zM622.87 781.21c3.42 1.76 7.51 4.6 7.97 8.63-4.51 11.71-16.31 18.56-27.44 22.98.71-8.35-2.4-17.06-8.76-22.62 9.78-.87 20.65-2.09 28.23-8.99zM479.22 786l.24-.19c4.78 4.94 10.03 10.02 16.93 11.68 9.37 2.36 18.89-.9 27.43-4.65 3.3 4.16 4.69 9.67 4.9 14.89-12.71 7.03-27.41 9.67-41.76 10.73-7.26.27-14.81.64-21.78-1.75-2.25-3.94-4.05-8.09-5.68-12.31-.5-1.79-2.1-2.79-3.52-3.78l-.06-.24c8.5-3.44 16.19-8.64 23.3-14.38z" opacity="1" data-original="#c79d7c" class=""></path>
      <path fill="#fddab6" stroke="#fddab6" d="M449.44 803.32c2.12-1.03 4.33-1.87 6.54-2.7 1.42.99 3.02 1.99 3.52 3.78 1.63 4.22 3.43 8.37 5.68 12.31-4.36-1.24-4.61-6.05-6.26-9.5-2.2-2.95-6.05-3.62-9.48-3.89z" opacity="1" data-original="#fddab6" class=""></path>
    </g>
  </g>
</svg>
